<svg id="visual" viewBox="0 0 900 600" width="900" height="600" xmlns="http://www.w3.org/2000/svg" xmlns:xlink="http://www.w3.org/1999/xlink" version="1.1"><g stroke-width="1" stroke-linejoin="bevel"><path d="M377 293L404 231L315 276Z" fill="#246688" stroke="#246688"></path><path d="M404 231L291 235L315 276Z" fill="#00101c" stroke="#00101c"></path><path d="M291 235L237 296L315 276Z" fill="#1d4e6b" stroke="#1d4e6b"></path><path d="M312 426L411 421L377 293Z" fill="#297ea6" stroke="#297ea6"></path><path d="M525 315L473 174L404 231Z" fill="#1d4e6b" stroke="#1d4e6b"></path><path d="M404 231L381 81L291 235Z" fill="#19435d" stroke="#19435d"></path><path d="M473 174L381 81L404 231Z" fill="#19435d" stroke="#19435d"></path><path d="M291 235L172 173L237 296Z" fill="#277297" stroke="#277297"></path><path d="M381 81L278 92L291 235Z" fill="#1d4e6b" stroke="#1d4e6b"></path><path d="M411 421L525 315L377 293Z" fill="#205a7a" stroke="#205a7a"></path><path d="M377 293L525 315L404 231Z" fill="#297ea6" stroke="#297ea6"></path><path d="M312 426L377 293L315 276Z" fill="#246688" stroke="#246688"></path><path d="M237 296L312 426L315 276Z" fill="#0c2435" stroke="#0c2435"></path><path d="M278 92L172 173L291 235Z" fill="#246688" stroke="#246688"></path><path d="M579 185L464 78L473 174Z" fill="#205a7a" stroke="#205a7a"></path><path d="M473 174L464 78L381 81Z" fill="#081a28" stroke="#081a28"></path><path d="M411 421L516 394L525 315Z" fill="#205a7a" stroke="#205a7a"></path><path d="M607 386L584 260L525 315Z" fill="#1d4e6b" stroke="#1d4e6b"></path><path d="M525 315L584 260L473 174Z" fill="#1d4e6b" stroke="#1d4e6b"></path><path d="M312 426L386 475L411 421Z" fill="#297ea6" stroke="#297ea6"></path><path d="M411 421L518 531L516 394Z" fill="#297ea6" stroke="#297ea6"></path><path d="M584 260L579 185L473 174Z" fill="#19435d" stroke="#19435d"></path><path d="M237 296L196 428L312 426Z" fill="#081a28" stroke="#081a28"></path><path d="M312 426L279 490L386 475Z" fill="#1d4e6b" stroke="#1d4e6b"></path><path d="M66 382L196 428L237 296Z" fill="#19435d" stroke="#19435d"></path><path d="M464 78L378 0L381 81Z" fill="#205a7a" stroke="#205a7a"></path><path d="M381 81L302 0L278 92Z" fill="#112e42" stroke="#112e42"></path><path d="M278 92L175 72L172 173Z" fill="#00101c" stroke="#00101c"></path><path d="M191 0L175 72L278 92Z" fill="#00101c" stroke="#00101c"></path><path d="M378 0L302 0L381 81Z" fill="#15384f" stroke="#15384f"></path><path d="M196 428L279 490L312 426Z" fill="#00101c" stroke="#00101c"></path><path d="M118 60L107 179L172 173Z" fill="#15384f" stroke="#15384f"></path><path d="M172 173L75 273L237 296Z" fill="#0c2435" stroke="#0c2435"></path><path d="M60 474L207 476L196 428Z" fill="#246688" stroke="#246688"></path><path d="M196 428L207 476L279 490Z" fill="#277297" stroke="#277297"></path><path d="M107 179L75 273L172 173Z" fill="#246688" stroke="#246688"></path><path d="M567 506L607 386L516 394Z" fill="#112e42" stroke="#112e42"></path><path d="M516 394L607 386L525 315Z" fill="#081a28" stroke="#081a28"></path><path d="M701 71L590 60L579 185Z" fill="#00101c" stroke="#00101c"></path><path d="M302 0L191 0L278 92Z" fill="#0c2435" stroke="#0c2435"></path><path d="M175 72L118 60L172 173Z" fill="#246688" stroke="#246688"></path><path d="M579 185L590 60L464 78Z" fill="#0c2435" stroke="#0c2435"></path><path d="M464 78L526 0L378 0Z" fill="#277297" stroke="#277297"></path><path d="M677 214L579 185L584 260Z" fill="#00101c" stroke="#00101c"></path><path d="M590 60L526 0L464 78Z" fill="#0c2435" stroke="#0c2435"></path><path d="M191 0L118 60L175 72Z" fill="#246688" stroke="#246688"></path><path d="M0 176L0 286L75 273Z" fill="#15384f" stroke="#15384f"></path><path d="M607 386L660 317L584 260Z" fill="#1d4e6b" stroke="#1d4e6b"></path><path d="M75 273L66 382L237 296Z" fill="#0c2435" stroke="#0c2435"></path><path d="M660 317L677 214L584 260Z" fill="#15384f" stroke="#15384f"></path><path d="M386 475L518 531L411 421Z" fill="#1d4e6b" stroke="#1d4e6b"></path><path d="M607 386L707 424L660 317Z" fill="#277297" stroke="#277297"></path><path d="M423 600L518 531L386 475Z" fill="#0c2435" stroke="#0c2435"></path><path d="M518 531L567 506L516 394Z" fill="#297ea6" stroke="#297ea6"></path><path d="M201 600L329 600L279 490Z" fill="#112e42" stroke="#112e42"></path><path d="M279 490L329 600L386 475Z" fill="#297ea6" stroke="#297ea6"></path><path d="M201 600L279 490L207 476Z" fill="#1d4e6b" stroke="#1d4e6b"></path><path d="M75 273L0 286L66 382Z" fill="#205a7a" stroke="#205a7a"></path><path d="M0 176L75 273L107 179Z" fill="#277297" stroke="#277297"></path><path d="M677 0L616 0L590 60Z" fill="#246688" stroke="#246688"></path><path d="M590 60L616 0L526 0Z" fill="#15384f" stroke="#15384f"></path><path d="M329 600L423 600L386 475Z" fill="#112e42" stroke="#112e42"></path><path d="M518 531L524 600L567 506Z" fill="#19435d" stroke="#19435d"></path><path d="M0 120L0 176L107 179Z" fill="#277297" stroke="#277297"></path><path d="M0 422L60 474L66 382Z" fill="#297ea6" stroke="#297ea6"></path><path d="M66 382L60 474L196 428Z" fill="#297ea6" stroke="#297ea6"></path><path d="M191 0L75 0L118 60Z" fill="#246688" stroke="#246688"></path><path d="M118 60L0 120L107 179Z" fill="#112e42" stroke="#112e42"></path><path d="M75 0L0 120L118 60Z" fill="#15384f" stroke="#15384f"></path><path d="M90 600L201 600L207 476Z" fill="#0c2435" stroke="#0c2435"></path><path d="M677 214L701 71L579 185Z" fill="#246688" stroke="#246688"></path><path d="M771 82L701 71L677 214Z" fill="#19435d" stroke="#19435d"></path><path d="M423 600L524 600L518 531Z" fill="#081a28" stroke="#081a28"></path><path d="M682 495L707 424L607 386Z" fill="#246688" stroke="#246688"></path><path d="M682 495L607 386L567 506Z" fill="#15384f" stroke="#15384f"></path><path d="M660 317L763 272L677 214Z" fill="#081a28" stroke="#081a28"></path><path d="M0 286L0 422L66 382Z" fill="#19435d" stroke="#19435d"></path><path d="M60 474L90 600L207 476Z" fill="#112e42" stroke="#112e42"></path><path d="M701 71L677 0L590 60Z" fill="#297ea6" stroke="#297ea6"></path><path d="M707 424L763 272L660 317Z" fill="#205a7a" stroke="#205a7a"></path><path d="M616 600L682 495L567 506Z" fill="#15384f" stroke="#15384f"></path><path d="M900 306L818 183L763 272Z" fill="#0c2435" stroke="#0c2435"></path><path d="M0 422L0 486L60 474Z" fill="#00101c" stroke="#00101c"></path><path d="M75 0L0 0L0 120Z" fill="#297ea6" stroke="#297ea6"></path><path d="M524 600L616 600L567 506Z" fill="#15384f" stroke="#15384f"></path><path d="M0 600L90 600L60 474Z" fill="#081a28" stroke="#081a28"></path><path d="M818 183L771 82L677 214Z" fill="#19435d" stroke="#19435d"></path><path d="M701 71L799 0L677 0Z" fill="#081a28" stroke="#081a28"></path><path d="M784 435L763 272L707 424Z" fill="#112e42" stroke="#112e42"></path><path d="M763 272L818 183L677 214Z" fill="#00101c" stroke="#00101c"></path><path d="M806 498L784 435L682 495Z" fill="#19435d" stroke="#19435d"></path><path d="M682 495L784 435L707 424Z" fill="#246688" stroke="#246688"></path><path d="M0 486L0 600L60 474Z" fill="#0c2435" stroke="#0c2435"></path><path d="M900 97L799 0L771 82Z" fill="#19435d" stroke="#19435d"></path><path d="M771 82L799 0L701 71Z" fill="#15384f" stroke="#15384f"></path><path d="M616 600L724 600L682 495Z" fill="#205a7a" stroke="#205a7a"></path><path d="M724 600L806 498L682 495Z" fill="#081a28" stroke="#081a28"></path><path d="M784 435L900 306L763 272Z" fill="#1d4e6b" stroke="#1d4e6b"></path><path d="M724 600L763 600L806 498Z" fill="#0c2435" stroke="#0c2435"></path><path d="M900 408L900 306L784 435Z" fill="#277297" stroke="#277297"></path><path d="M818 183L900 97L771 82Z" fill="#246688" stroke="#246688"></path><path d="M900 408L784 435L900 474Z" fill="#246688" stroke="#246688"></path><path d="M900 306L900 160L818 183Z" fill="#205a7a" stroke="#205a7a"></path><path d="M900 160L900 97L818 183Z" fill="#297ea6" stroke="#297ea6"></path><path d="M900 474L784 435L806 498Z" fill="#00101c" stroke="#00101c"></path><path d="M900 600L900 474L806 498Z" fill="#00101c" stroke="#00101c"></path><path d="M900 97L900 0L799 0Z" fill="#1d4e6b" stroke="#1d4e6b"></path><path d="M763 600L900 600L806 498Z" fill="#1d4e6b" stroke="#1d4e6b"></path></g></svg>